<svg width="574" height="80" viewBox="0 0 574 80" fill="none" xmlns="http://www.w3.org/2000/svg">
<path fill-rule="evenodd" clip-rule="evenodd" d="M53 8.28686C47.9432 3.20138 40.92 0 30.8072 0C13.7651 0 0 14.1253 0 31.5472C0 48.8747 13.2969 63 30.8072 63C40.4518 63 47.6626 60.2686 53 54.4302L45.2272 45.7668C41.9501 49.2512 36.8003 51.2288 31.6498 51.2288C20.6007 51.2288 12.4544 42.3768 12.4544 31.5472C12.4544 20.6232 20.6007 11.7712 30.901 11.7712C36.8941 11.7712 41.6695 14.1253 45.2272 17.2332L53 8.28686Z" fill="white"/>
<path fill-rule="evenodd" clip-rule="evenodd" d="M80.4532 62C93.545 62 104 51.4321 104 38.546C104 25.5679 93.545 15 80.4532 15C67.3607 15 57 25.5679 57 38.546C57 51.4321 67.3607 62 80.4532 62ZM80.5468 51.3393C73.5776 51.3393 68.4912 45.5918 68.4912 38.454C68.4912 31.3153 73.5776 25.6608 80.5468 25.6608C87.4233 25.6608 92.4145 31.3153 92.4145 38.454C92.4145 45.5918 87.4233 51.3393 80.5468 51.3393Z" fill="white"/>
<path fill-rule="evenodd" clip-rule="evenodd" d="M123.394 35.6208C123.394 29.5556 126.85 25.7302 132.547 25.7302C138.057 25.7302 141.606 29.5556 141.606 35.6208V61H153V33.9409C153 22.2778 146.369 15 136.002 15C130.492 15 126.196 17.0529 123.394 20.6914V16.306H112V61H123.394V35.6208Z" fill="white"/>
<path fill-rule="evenodd" clip-rule="evenodd" d="M175.135 28.2567C175.135 25.8465 177.448 24.0846 181.333 24.0846C185.588 24.0846 189.287 25.475 192.247 28.9979L198.63 22.3236C195.3 17.688 189.01 15 181.056 15C169.77 15 164.035 21.4895 164.035 28.2567C164.035 44.2014 187.808 40.3079 187.808 48.2798C187.808 51.0607 185.588 52.9154 181.24 52.9154C175.968 52.9154 171.713 51.0607 168.29 47.26L162 54.4907C165.792 58.9406 172.175 62 180.592 62C192.618 62 199 55.6034 199 48.0949C199 31.501 175.135 36.0429 175.135 28.2567Z" fill="white"/>
<path fill-rule="evenodd" clip-rule="evenodd" d="M229.944 62C237.491 62 243.826 58.9406 247.18 55.0471L241.311 47.3529C238.702 50.0417 234.883 51.9884 230.41 51.9884C223.516 51.9884 218.764 47.5386 217.646 41.3277H250.721C250.907 40.5856 251 39.0095 251 37.6191C251 24.8267 241.311 15 228.547 15C215.689 15 206 25.5679 206 38.546C206 51.4321 216.062 62 229.944 62ZM228.733 24.6409C234.043 24.6409 238.05 27.8853 239.354 34.189H217.833C219.137 28.5345 223.05 24.6409 228.733 24.6409Z" fill="white"/>
<path fill-rule="evenodd" clip-rule="evenodd" d="M280.347 51.9812C273.378 51.9812 268.291 46.1323 268.291 38.8683C268.291 31.6035 273.378 25.8491 280.347 25.8491C287.222 25.8491 292.214 31.6035 292.214 38.8683C292.214 46.1323 287.222 51.9812 280.347 51.9812ZM292.214 16.3205V20.849C289.013 17.1702 284.397 15 278.463 15C265.937 15 256.8 25.2829 256.8 38.962C256.8 53.019 266.502 62.8303 278.463 62.8303C284.303 62.8303 288.918 60.472 292.214 56.6042V80H303.8V16.3205H292.214Z" fill="white"/>
<path fill-rule="evenodd" clip-rule="evenodd" d="M325.437 16H314V41.1082C314 53.6619 322.343 62 335 62C347.656 62 356 53.6619 356 41.1082V16H344.562V40.2653C344.562 46.8228 340.719 51.2261 335 51.2261C329.281 51.2261 325.437 46.8228 325.437 40.2653V16Z" fill="white"/>
<path fill-rule="evenodd" clip-rule="evenodd" d="M387.944 62C395.491 62 401.826 58.9406 405.18 55.0471L399.311 47.3529C396.702 50.0417 392.882 51.9884 388.41 51.9884C381.515 51.9884 376.764 47.5386 375.646 41.3277H408.72C408.907 40.5856 409 39.0095 409 37.6191C409 24.8267 399.311 15 386.547 15C373.69 15 364 25.5679 364 38.546C364 51.4321 374.063 62 387.944 62ZM386.733 24.6409C392.044 24.6409 396.05 27.8853 397.354 34.189H375.832C377.137 28.5345 381.05 24.6409 386.733 24.6409Z" fill="white"/>
<path fill-rule="evenodd" clip-rule="evenodd" d="M428.394 35.6208C428.394 29.5556 431.849 25.7302 437.547 25.7302C443.056 25.7302 446.606 29.5556 446.606 35.6208V61H458V33.9409C458 22.2778 451.369 15 441.002 15C435.492 15 431.196 17.0529 428.394 20.6914V16.306H417V61H428.394V35.6208Z" fill="white"/>
<path fill-rule="evenodd" clip-rule="evenodd" d="M500.462 29.74L507 21.6744C503.077 17.596 497.006 15 489.348 15C476.273 15 466 25.5679 466 38.546C466 51.4321 476.273 62 489.535 62C496.633 62 503.077 59.2192 506.627 55.3256L500.835 46.9823C498.034 49.7631 494.392 51.3393 489.815 51.3393C482.531 51.3393 477.394 45.5918 477.394 38.454C477.394 31.3153 482.437 25.6608 489.909 25.6608C494.298 25.6608 497.66 27.0512 500.462 29.74Z" fill="white"/>
<path fill-rule="evenodd" clip-rule="evenodd" d="M533.945 62C541.491 62 547.826 58.9406 551.18 55.0471L545.311 47.3529C542.702 50.0417 538.883 51.9884 534.41 51.9884C527.516 51.9884 522.764 47.5386 521.646 41.3277H554.721C554.908 40.5856 555 39.0095 555 37.6191C555 24.8267 545.311 15 532.547 15C519.689 15 510 25.5679 510 38.546C510 51.4321 520.062 62 533.945 62ZM532.733 24.6409C538.044 24.6409 542.05 27.8853 543.354 34.189H521.833C523.137 28.5345 527.05 24.6409 532.733 24.6409Z" fill="white"/>
<path fill-rule="evenodd" clip-rule="evenodd" d="M566.453 63C570.603 63 574 59.6983 574 55.5468C574 51.3962 570.603 48 566.453 48C562.301 48 559 51.3962 559 55.5468C559 59.6983 562.301 63 566.453 63Z" fill="#F3113B"/>
</svg>
